<?xml version="1.0" encoding="utf-8"?>
<!-- Generator: Adobe Illustrator 16.0.0, SVG Export Plug-In . SVG Version: 6.00 Build 0)  -->
<!DOCTYPE svg PUBLIC "-//W3C//DTD SVG 1.1//EN" "http://www.w3.org/Graphics/SVG/1.1/DTD/svg11.dtd">
<svg version="1.1" id="Layer_1" xmlns="http://www.w3.org/2000/svg" xmlns:xlink="http://www.w3.org/1999/xlink" x="0px" y="0px"
	 width="400px" height="400px" viewBox="0 0 400 400" enable-background="new 0 0 400 400" xml:space="preserve">
<path fill="#11AAE6" d="M391.703,97.5c-0.5-20-14-35.5-35.5-36s-291-0.024-312,0c-20.999,0.024-36.5,16-36,38s0,195,0,215
	s15.5,36,36,35s288.5,0.5,311.5,0s37-13.5,36-35.5S392.203,117.5,391.703,97.5z M43.703,86c6.021-0.066,306.5,0,313,0
	s11.5,5.5,12,12.5s0,30,0,30S268.869,209,256.536,220S217.797,256,200,255s-41.797-26-55.297-36s-113-90.5-113-90.5s0.5-25,0-32
	S31.704,86.131,43.703,86z M368.926,313.5c-0.723,10-1.223,13-11.723,12.5s-302.5,0.605-312,0.053
	c-9.5-0.552-13.245-1.553-13.622-13.053s1-152,1-152s82.123,66.5,97.623,78.5s41.6,37.5,70.05,38c28.45,0.5,54.95-28,69.95-39.5
	s98.723-78,98.723-78S369.648,303.5,368.926,313.5z"/>
</svg>
